<svg width="166" height="169" viewBox="0 0 166 169" fill="none" xmlns="http://www.w3.org/2000/svg">
<line x1="81.5" y1="21" x2="81.5" y2="56" stroke="#1E1E1E" stroke-width="7"/>
<line x1="83.5" y1="111" x2="83.5" y2="146" stroke="#1E1E1E" stroke-width="7"/>
<line x1="126.424" y1="38.5249" x2="101.424" y2="62.5249" stroke="#1E1E1E" stroke-width="7"/>
<line x1="144.905" y1="83.4987" x2="107.905" y2="82.4987" stroke="#1E1E1E" stroke-width="7"/>
<line x1="125.424" y1="129.37" x2="102.424" y2="104.37" stroke="#1E1E1E" stroke-width="7"/>
<line x1="37.5741" y1="127.477" x2="63.5741" y2="102.477" stroke="#1E1E1E" stroke-width="7"/>
<line x1="57.9054" y1="84.4987" x2="20.9054" y2="83.4987" stroke="#1E1E1E" stroke-width="7"/>
<line x1="38.5249" y1="40.5761" x2="62.5249" y2="65.5761" stroke="#1E1E1E" stroke-width="7"/>
<circle cx="83" cy="83" r="30" fill="#1E1E1E"/>
<circle cx="12.5" cy="83.5" r="12.5" fill="#1E1E1E"/>
<circle cx="153.5" cy="83.5" r="12.5" fill="#1E1E1E"/>
<circle cx="132.5" cy="33.5" r="12.5" fill="#1E1E1E"/>
<circle cx="30.5" cy="135.5" r="12.5" fill="#1E1E1E"/>
<circle cx="132.5" cy="135.5" r="12.5" fill="#1E1E1E"/>
<circle cx="82.5" cy="12.5" r="12.5" fill="#1E1E1E"/>
<circle cx="82.5" cy="12.5" r="12.5" fill="#1E1E1E"/>
<circle cx="30.5" cy="33.5" r="12.5" fill="#1E1E1E"/>
<circle cx="82.5" cy="82.5" r="22.5" fill="#FFD644"/>
<circle cx="13" cy="84" r="5" fill="#FFD644"/>
<circle cx="154" cy="83" r="5" fill="#FFD644"/>
<circle cx="133" cy="33" r="5" fill="#FFD644"/>
<circle cx="31" cy="135" r="5" fill="#FFD644"/>
<circle cx="133" cy="135" r="5" fill="#FFD644"/>
<circle cx="83" cy="12" r="5" fill="#FFD644"/>
<circle cx="82.5" cy="156.5" r="12.5" fill="#1E1E1E"/>
<circle cx="83" cy="156" r="5" fill="#FFD644"/>
<circle cx="31" cy="33" r="5" fill="#FFD644"/>
</svg>
